<?xml version="1.0" encoding="UTF-8"?>
<svg height="128px" viewBox="0 0 128 128" width="128px" xmlns="http://www.w3.org/2000/svg">
    <path d="m 502.997233 255.99433 c 0 136.42659 -110.587201 247.013349 -246.990089 247.013349 c -136.420041 0 -247.007241 -110.586759 -247.007241 -247.013349 c 0 -136.409048 110.5872 -246.995807 247.007241 -246.995807 c 136.402888 0 246.990089 110.586759 246.990089 246.995807 z m 0 0" fill="#ffba07" stroke="#000000" stroke-width="18" transform="matrix(0.227726 0 0 0.222676 5.942675 6.160309)"/>
    <path d="m 77.792969 29.765625 c 0 -0.617187 0.507812 -1.113281 1.136719 -1.113281 h 16.449218 c 0.628906 0 1.140625 0.496094 1.140625 1.113281 v 47.492187 c 0 0.613282 0.507813 1.113282 1.136719 1.113282 h 5.296875 c 0.996094 0 1.511719 1.15625 0.835937 1.871094 l -15.8125 16.660156 c -0.445312 0.46875 -1.203124 0.476562 -1.65625 0.015625 l -16.359374 -16.664063 c -0.695313 -0.707031 -0.179688 -1.882812 0.824218 -1.882812 h 5.867188 c 0.628906 0 1.140625 -0.5 1.140625 -1.113282 z m 0 0"/>
    <path d="m 50.109375 96.65625 c 0 0.613281 -0.507813 1.113281 -1.136719 1.113281 h -16.449218 c -0.628907 0 -1.140626 -0.5 -1.140626 -1.113281 v -47.496094 c 0 -0.613281 -0.507812 -1.113281 -1.136718 -1.113281 h -5.296875 c -0.996094 0 -1.511719 -1.15625 -0.835938 -1.871094 l 15.8125 -16.660156 c 0.445313 -0.46875 1.203125 -0.476563 1.65625 -0.015625 l 16.359375 16.664062 c 0.695313 0.707032 0.183594 1.882813 -0.820312 1.882813 h -5.871094 c -0.628906 0 -1.140625 0.5 -1.140625 1.113281 z m 0 0"/>
</svg>
